<?xml version="1.0" encoding="utf-8"?>
<!-- Generator: Adobe Illustrator 22.1.0, SVG Export Plug-In . SVG Version: 6.00 Build 0)  -->
<svg version="1.1" id="Layer_1" xmlns:serif="http://www.serif.com/"
	 xmlns="http://www.w3.org/2000/svg" xmlns:xlink="http://www.w3.org/1999/xlink" x="0px" y="0px" viewBox="0 0 1000 1000"
	 style="enable-background:new 0 0 1000 1000;" xml:space="preserve">
<style type="text/css">
	.st0{fill:#848484;}
	.st1{font-family:'ProductSans-Regular';}
	.st2{font-size:137.511px;}
	.st3{fill:#FEBE17;}
	.st4{fill:#FFFFFF;}
	.st5{fill:#E0E0EE;}
</style>
<g transform="matrix(1,0,0,1,-140.452,-33.9963)">
	<text transform="matrix(1 0 0 1 292.069 659.915)" class="st0 st1 st2">bo</text>
	<text transform="matrix(1 0 0 1 446.906 659.915)" class="st0 st1 st2">r</text>
	<text transform="matrix(1 0 0 1 496.8213 659.915)" class="st0 st1 st2">in</text>
	<text transform="matrix(1 0 0 1 600.918 659.915)" class="st0 st1 st2">g</text>
	<text transform="matrix(1 0 0 1 679.436 659.915)" class="st0 st1 st2">d</text>
	<text transform="matrix(1 0 0 1 758.6421 659.915)" class="st0 st1 st2">r</text>
	<text transform="matrix(1 0 0 1 804.433 659.915)" class="st0 st1 st2">o</text>
	<text transform="matrix(1 0 0 1 880.0641 659.915)" class="st0 st1 st2">i</text>
	<text transform="matrix(1 0 0 1 909.629 659.915)" class="st0 st1 st2">d</text>
</g>
<g id="Ebene1">
	<path class="st3" d="M423.4,541.3c-23.2-20.9-37.7-51.2-37.7-84.8c0-63.1,51.2-114.3,114.3-114.3s114.3,51.2,114.3,114.3
		c0,33.6-14.6,63.9-37.7,84.8H423.4z"/>
	<g transform="matrix(1,0,0,1,-5.68434e-14,-35.8903)">
		<path class="st4" d="M423.8,577.6c2.2-6.1,8-10.4,14.9-10.4c17.2,0,40.4,0,40.4,0v-10.1h-28.5c-14.7,0-28.6-11.9-28.6-26.6v-11.3
			h-6.6c-4.4,0-7.9-3.5-7.9-7.9c0-4.6,0-10.4,0-15c0-4.1,3.2-7.5,7.3-7.9v-48.4c-4.2-1.2-7.3-5-7.3-9.6c0-5.5,4.5-10,10-10
			c5.5,0,10,4.5,10,10c0,4.6-3.1,8.4-7.3,9.6v48.4h1.9v-11.3c0-14.7,11.9-26.6,26.6-26.6H495v-10.4c-3.8-1.5-6.5-5.2-6.5-9.5
			c0-5.6,4.6-10.2,10.2-10.2c5.6,0,10.2,4.6,10.2,10.2c0,4.3-2.7,8-6.5,9.5v10.4h46.4c14.7,0,26.6,11.9,26.6,26.6v11.3h4.5v-48.4
			c-4.2-1.2-7.3-5-7.3-9.6c0-5.5,4.5-10,10-10c5.5,0,10,4.5,10,10c0,4.6-3.1,8.4-7.3,9.6v49.1c2.7,1.2,4.6,4,4.6,7.2
			c0,4.6,0,10.4,0,15c0,4.4-3.5,7.9-7.9,7.9h-6.6v11.3c0,14.7-11.9,26.6-26.6,26.6h-30.5v10.1h42.4c6.8,0,12.6,4.3,14.9,10.4H423.8z
			 M549.8,490.1c0-4.9-1.9-9.6-5.4-13s-8.1-5.4-13-5.4c-18.7,0-47.5,0-66.1,0c-4.9,0-9.6,1.9-13,5.4c-3.5,3.5-5.4,8.1-5.4,13
			c0,8.6,0,18.7,0,27.3c0,4.9,1.9,9.6,5.4,13c3.5,3.5,8.1,5.4,13,5.4c18.7,0,47.5,0,66.1,0c4.9,0,9.6-1.9,13-5.4s5.4-8.1,5.4-13
			C549.8,508.8,549.8,498.6,549.8,490.1z M474.1,496.4c4.1,0,7.5,3.4,7.5,7.5c0,4.1-3.4,7.5-7.5,7.5c-4.1,0-7.5-3.4-7.5-7.5
			C466.6,499.8,470,496.4,474.1,496.4z M523.1,496.4c4.1,0,7.5,3.4,7.5,7.5c0,4.1-3.4,7.5-7.5,7.5c-4.1,0-7.5-3.4-7.5-7.5
			C515.6,499.8,519,496.4,523.1,496.4z"/>
	</g>
	<g transform="matrix(1,0,0,1,-5.68434e-14,2.10965)">
		<path class="st5" d="M518.2,529.1H479v-9.8h39.2V529.1z M421.9,481.3h-6.6c-4.4,0-7.9-3.5-7.9-7.9c0-4.6,0-10.4,0-15
			c0-4.1,3.2-7.5,7.3-7.9v-48.4c-4.2-1.2-7.3-5-7.3-9.6c0-5.5,4.5-10,10-10c5.5,0,10,4.5,10,10c0,4.6-3.1,8.4-7.3,9.6v48.4h1.8
			V481.3z M575.6,450.6h4.2v-48.4c-4.2-1.2-7.3-5-7.3-9.6c0-5.5,4.5-10,10-10c5.5,0,10,4.5,10,10c0,4.6-3.1,8.4-7.3,9.6v49.1
			c2.7,1.2,4.6,4,4.6,7.2c0,4.6,0,10.4,0,15c0,4.4-3.5,7.9-7.9,7.9h-6.3V450.6z"/>
	</g>
</g>
</svg>
