<?xml version="1.0" encoding="UTF-8" standalone="no"?>
<!DOCTYPE svg PUBLIC "-//W3C//DTD SVG 1.1//EN" "http://www.w3.org/Graphics/SVG/1.1/DTD/svg11.dtd">
<svg width="100%" height="100%" viewBox="0 0 1000 400" version="1.1" xmlns="http://www.w3.org/2000/svg" xmlns:xlink="http://www.w3.org/1999/xlink" xml:space="preserve" xmlns:serif="http://www.serif.com/" style="fill-rule:evenodd;clip-rule:evenodd;stroke-linejoin:round;stroke-miterlimit:2;">
    <rect x="0" y="0" width="1000" height="400" style="fill:white;"/>
    <g transform="matrix(1,0,0,1,-140.452,-33.9963)">
        <text x="292.069px" y="359.915px" style="font-family:'ProductSans-Regular', 'Product Sans', sans-serif;font-size:137.511px;fill:rgb(132,132,132);">bo<tspan x="446.906px " y="359.915px ">r</tspan>in<tspan x="600.918px 679.436px 758.642px 804.433px 880.064px 909.629px " y="359.915px 359.915px 359.915px 359.915px 359.915px 359.915px ">gdroid</tspan></text>
    </g>
    <g id="Ebene1">
        <path d="M423.407,241.296C400.255,220.375 385.697,190.115 385.697,156.481C385.697,93.396 436.915,42.179 500,42.179C563.085,42.179 614.303,93.396 614.303,156.481C614.303,190.115 599.745,220.375 576.593,241.296L423.407,241.296Z" style="fill:rgb(67,72,93);"/>
        <g transform="matrix(1,0,0,1,-5.68434e-14,-35.8903)">
            <path d="M423.8,277.627C426.016,271.568 431.832,267.244 438.658,267.244C455.893,267.244 479.042,267.244 479.042,267.244L479.042,257.191L450.543,257.191C435.875,257.191 421.985,245.301 421.985,230.633L421.985,219.331L415.35,219.331C410.999,219.331 407.471,215.804 407.471,211.452C407.471,206.842 407.471,201.041 407.471,196.431C407.471,192.289 410.667,188.893 414.728,188.576L414.728,140.129C410.542,138.946 407.471,135.095 407.471,130.532C407.471,125.028 411.939,120.559 417.443,120.559C422.948,120.559 427.416,125.028 427.416,130.532C427.416,135.107 424.328,138.967 420.124,140.139L420.124,188.552L421.985,188.552L421.985,177.25C421.985,162.582 433.875,150.691 448.543,150.691L494.982,150.691L494.982,140.263C491.163,138.792 488.451,135.085 488.451,130.75C488.451,125.126 493.018,120.559 498.642,120.559C504.267,120.559 508.833,125.126 508.833,130.75C508.833,135.085 506.121,138.792 502.303,140.263L502.303,150.691L548.741,150.691C563.409,150.691 575.3,162.582 575.3,177.25L575.3,188.552L579.841,188.552L579.841,140.129C575.655,138.946 572.584,135.095 572.584,130.532C572.584,125.028 577.052,120.559 582.557,120.559C588.061,120.559 592.529,125.028 592.529,130.532C592.529,135.107 589.441,138.967 585.237,140.139L585.237,189.275C587.939,190.524 589.813,193.259 589.814,196.431C589.814,201.041 589.814,206.842 589.814,211.452C589.813,215.804 586.286,219.331 581.934,219.331L575.3,219.331L575.3,230.633C575.3,245.301 563.409,257.191 548.741,257.191L518.242,257.191L518.242,267.244L560.626,267.244C567.452,267.244 573.269,271.568 575.484,277.627L423.8,277.627ZM549.753,190.053C549.753,185.167 547.812,180.482 544.357,177.027C540.902,173.572 536.217,171.631 531.331,171.631C512.641,171.631 483.875,171.631 465.185,171.631C460.299,171.631 455.613,173.572 452.158,177.027C448.704,180.482 446.763,185.167 446.763,190.053C446.763,198.62 446.763,208.784 446.763,217.351C446.763,222.237 448.704,226.922 452.158,230.377C455.613,233.832 460.299,235.773 465.185,235.773C483.875,235.773 512.641,235.773 531.331,235.773C536.217,235.773 540.902,233.832 544.357,230.377C547.812,226.922 549.753,222.237 549.753,217.351C549.753,208.784 549.753,198.62 549.753,190.053ZM474.142,196.441C478.282,196.441 481.642,199.802 481.642,203.941C481.642,208.081 478.282,211.441 474.142,211.441C470.003,211.441 466.642,208.081 466.642,203.941C466.642,199.802 470.003,196.441 474.142,196.441ZM523.142,196.441C527.282,196.441 530.642,199.802 530.642,203.941C530.642,208.081 527.282,211.441 523.142,211.441C519.003,211.441 515.642,208.081 515.642,203.941C515.642,199.802 519.003,196.441 523.142,196.441Z" style="fill:white;"/>
        </g>
        <g transform="matrix(1,0,0,1,-5.68434e-14,2.10965)">
            <path d="M518.242,229.131L479.042,229.131L479.042,219.372L518.242,219.372L518.242,229.131ZM421.924,181.331L415.35,181.331C410.999,181.331 407.471,177.804 407.471,173.452C407.471,168.842 407.471,163.041 407.471,158.431C407.471,154.289 410.667,150.893 414.728,150.576L414.728,102.129C410.542,100.946 407.471,97.095 407.471,92.532C407.471,87.028 411.939,82.559 417.443,82.559C422.948,82.559 427.416,87.028 427.416,92.532C427.416,97.107 424.328,100.967 420.124,102.139L420.124,150.552L421.924,150.552L421.924,181.331ZM575.63,150.552L579.841,150.552L579.841,102.129C575.655,100.946 572.584,97.095 572.584,92.532C572.584,87.028 577.052,82.559 582.557,82.559C588.061,82.559 592.529,87.028 592.529,92.532C592.529,97.107 589.441,100.967 585.237,102.139L585.237,151.275C587.939,152.524 589.813,155.259 589.814,158.431C589.814,163.041 589.814,168.842 589.814,173.452C589.813,177.804 586.286,181.331 581.934,181.331L575.63,181.331L575.63,150.552Z" style="fill:rgb(224,224,238);"/>
        </g>
    </g>
</svg>
