<?xml version="1.0" encoding="UTF-8" standalone="no"?>
<!DOCTYPE svg PUBLIC "-//W3C//DTD SVG 1.1//EN" "http://www.w3.org/Graphics/SVG/1.1/DTD/svg11.dtd">
<svg width="100%" height="100%" viewBox="0 0 24 24" version="1.1" xmlns="http://www.w3.org/2000/svg" xmlns:xlink="http://www.w3.org/1999/xlink" xml:space="preserve" xmlns:serif="http://www.serif.com/" style="fill-rule:evenodd;clip-rule:evenodd;stroke-linejoin:round;stroke-miterlimit:2;">
    <g transform="matrix(0.109295,0,0,0.109295,-42.6477,-5.8373)">
        <path d="M575.3,183.441L575.3,194.743C575.3,209.41 563.409,221.301 548.741,221.301L518.242,221.301L518.242,231.353L560.626,231.353C567.452,231.353 573.269,235.678 575.484,241.737L423.8,241.737C426.016,235.678 431.832,231.353 438.658,231.353C455.893,231.353 479.042,231.353 479.042,231.353L479.042,221.301L450.543,221.301C435.875,221.301 421.985,209.41 421.985,194.743L421.985,183.441L415.35,183.441C410.999,183.441 407.471,179.913 407.471,175.562C407.471,170.952 407.471,165.151 407.471,160.541C407.471,156.398 410.667,153.002 414.728,152.685L414.728,104.239C410.542,103.055 407.471,99.204 407.471,94.641C407.471,89.137 411.939,84.669 417.443,84.669L417.572,84.67C423.017,84.738 427.416,89.18 427.416,94.641C427.416,99.217 424.328,103.077 420.124,104.249L420.124,152.661L421.985,152.661L421.985,141.36C421.985,126.692 433.875,114.801 448.543,114.801L494.982,114.801L494.982,104.373C491.163,102.901 488.451,99.195 488.451,94.86C488.451,89.235 493.018,84.669 498.642,84.669C504.267,84.669 508.833,89.235 508.833,94.86C508.833,99.195 506.121,102.901 502.303,104.373L502.303,114.801L548.741,114.801C563.409,114.801 575.3,126.692 575.3,141.36L575.3,152.661L579.841,152.661L579.841,104.239C575.655,103.055 572.584,99.204 572.584,94.641C572.584,89.18 576.983,84.738 582.428,84.67L582.557,84.669L582.685,84.67C588.13,84.738 592.529,89.18 592.529,94.641C592.529,99.217 589.441,103.077 585.237,104.249L585.237,153.385C587.939,154.634 589.813,157.368 589.814,160.541C589.814,165.151 589.814,170.952 589.814,175.562C589.813,179.913 586.286,183.441 581.934,183.441L575.3,183.441ZM549.753,154.163C549.753,149.277 547.812,144.591 544.357,141.137C540.902,137.682 536.217,135.741 531.331,135.741C512.641,135.741 483.875,135.741 465.185,135.741C460.299,135.741 455.613,137.682 452.158,141.137C448.704,144.591 446.763,149.277 446.763,154.163C446.763,162.73 446.763,172.894 446.763,181.46C446.763,186.346 448.704,191.032 452.158,194.487C455.613,197.941 460.299,199.882 465.185,199.882C483.875,199.882 512.641,199.882 531.331,199.882C536.217,199.882 540.902,197.941 544.357,194.487C547.812,191.032 549.753,186.346 549.753,181.46C549.753,172.894 549.753,162.73 549.753,154.163ZM474.142,160.551C478.282,160.551 481.642,163.912 481.642,168.051C481.642,172.19 478.282,175.551 474.142,175.551C470.003,175.551 466.642,172.19 466.642,168.051C466.642,163.912 470.003,160.551 474.142,160.551ZM523.142,160.551C527.282,160.551 530.642,163.912 530.642,168.051C530.642,172.19 527.282,175.551 523.142,175.551C519.003,175.551 515.642,172.19 515.642,168.051C515.642,163.912 519.003,160.551 523.142,160.551Z" style="fill:white;"/>
    </g>
</svg>
